<svg width="70" height="70" viewBox="0 0 70 70" fill="none" xmlns="http://www.w3.org/2000/svg">
<g clip-path="url(#clip0_409_946)">
<path d="M69.5098 54.0996L53.5 38.0898C50.3418 34.9316 45.625 34.3164 41.8242 36.1895L27.25 21.6152V13.125L9.75 0L1 8.75L14.125 26.25H22.6152L37.1894 40.8242C35.3301 44.625 35.9316 49.3418 39.0898 52.5L55.0996 68.5098C57.0957 70.5059 60.3223 70.5059 62.3047 68.5098L69.5098 61.3047C71.4922 59.3086 71.4922 56.082 69.5098 54.0996ZM46.3496 30.7617C50.2187 30.7617 53.8555 32.2656 56.5898 35L59.2422 37.6523C61.4023 36.709 63.4531 35.3965 65.2305 33.6191C70.3027 28.5469 72.0254 21.4102 70.4121 14.9297C70.1113 13.6992 68.5664 13.2754 67.6641 14.1777L57.4922 24.3496L48.209 22.8047L46.6641 13.5215L56.8359 3.34961C57.7383 2.44727 57.3008 0.902344 56.0566 0.587891C49.5762 -1.01172 42.4394 0.710938 37.3809 5.76953C33.4844 9.66601 31.6523 14.8066 31.748 19.9336L42.9727 31.1582C44.0801 30.8984 45.2285 30.7617 46.3496 30.7617ZM32.1445 41.9727L24.3926 34.2207L3.55664 55.0703C0.138672 58.4883 0.138672 64.0254 3.55664 67.4434C6.97461 70.8613 12.5117 70.8613 15.9297 67.4434L32.8281 50.5449C31.7891 47.8242 31.4746 44.8574 32.1445 41.9727ZM9.75 64.5312C7.94531 64.5312 6.46875 63.0547 6.46875 61.25C6.46875 59.4316 7.93164 57.9687 9.75 57.9687C11.5684 57.9687 13.0312 59.4316 13.0312 61.25C13.0312 63.0547 11.5684 64.5312 9.75 64.5312Z" fill="#3B82F6"/>
</g>
<defs>
<clipPath id="clip0_409_946">
<rect width="70" height="70" fill="white"/>
</clipPath>
</defs>
</svg>
